{
  "accessors": [
    {
      "bufferView": 2,
      "componentType": 5126,
      "count": 65532,
      "max": [
        9.012539863586426,
        64.0892333984375,
        27.574546813964844
      ],
      "min": [
        -9.01253890991211,
        -67.870849609375,
        0.9695420265197754
      ],
      "type": "VEC3"
    },
    {
      "bufferView": 2,
      "byteOffset": 786384,
      "componentType": 5126,
      "count": 65532,
      "max": [
        1.0,
        1.0,
        1.0
      ],
      "min": [
        -1.0,
        -1.0,
        -1.0
      ],
      "type": "VEC3"
    },
    {
      "bufferView": 1,
      "componentType": 5126,
      "count": 65532,
      "max": [
        0.026402000337839127,
        0.985634982585907
      ],
      "min": [
        0.010990999639034271,
        0.11263599991798401
      ],
      "type": "VEC2"
    },
    {
      "bufferView": 0,
      "componentType": 5125,
      "count": 120210,
      "type": "SCALAR"
    },
    {
      "bufferView": 2,
      "byteOffset": 1572768,
      "componentType": 5126,
      "count": 60420,
      "max": [
        10.119372367858887,
        58.784690856933594,
        27.574546813964844
      ],
      "min": [
        -10.119372367858887,
        -64.27278137207031,
        1.00422203540802
      ],
      "type": "VEC3"
    },
    {
      "bufferView": 2,
      "byteOffset": 2297808,
      "componentType": 5126,
      "count": 60420,
      "max": [
        1.0,
        1.0,
        1.0
      ],
      "min": [
        -1.0,
        -1.0,
        -1.0
      ],
      "type": "VEC3"
    },
    {
      "bufferView": 1,
      "byteOffset": 524256,
      "componentType": 5126,
      "count": 60420,
      "max": [
        0.7916579842567444,
        0.984794020652771
      ],
      "min": [
        0.01043699961155653,
        0.29046499729156494
      ],
      "type": "VEC2"
    },
    {
      "bufferView": 0,
      "byteOffset": 480840,
      "componentType": 5125,
      "count": 100398,
      "type": "SCALAR"
    },
    {
      "bufferView": 2,
      "byteOffset": 3022848,
      "componentType": 5126,
      "count": 65532,
      "max": [
        6.955778121948242,
        66.54402160644531,
        0.7101359963417053
      ],
      "min": [
        -6.956315994262695,
        -66.28102111816406,
        0.06006300076842308
      ],
      "type": "VEC3"
    },
    {
      "bufferView": 2,
      "byteOffset": 3809232,
      "componentType": 5126,
      "count": 65532,
      "max": [
        1.0,
        1.0,
        1.0
      ],
      "min": [
        -1.0,
        -1.0,
        -1.0
      ],
      "type": "VEC3"
    },
    {
      "bufferView": 1,
      "byteOffset": 1007616,
      "componentType": 5126,
      "count": 65532,
      "max": [
        0.027458999305963516,
        0.8159170150756836
      ],
      "min": [
        0.006974999792873859,
        0.4177039861679077
      ],
      "type": "VEC2"
    },
    {
      "bufferView": 0,
      "byteOffset": 882432,
      "componentType": 5125,
      "count": 113082,
      "type": "SCALAR"
    },
    {
      "bufferView": 2,
      "byteOffset": 4595616,
      "componentType": 5126,
      "count": 11180,
      "max": [
        6.955778121948242,
        67.98273468017578,
        1.2700749635696411
      ],
      "min": [
        -6.956315994262695,
        -67.98274230957031,
        0.0601079985499382
      ],
      "type": "VEC3"
    },
    {
      "bufferView": 2,
      "byteOffset": 4729776,
      "componentType": 5126,
      "count": 11180,
      "max": [
        1.0,
        1.0,
        1.0
      ],
      "min": [
        -1.0,
        -1.0,
        -1.0
      ],
      "type": "VEC3"
    },
    {
      "bufferView": 1,
      "byteOffset": 1531872,
      "componentType": 5126,
      "count": 11180,
      "max": [
        0.027458999305963516,
        0.8159170150756836
      ],
      "min": [
        0.006974999792873859,
        0.4177039861679077
      ],
      "type": "VEC2"
    },
    {
      "bufferView": 0,
      "byteOffset": 1334760,
      "componentType": 5125,
      "count": 19158,
      "type": "SCALAR"
    },
    {
      "bufferView": 2,
      "byteOffset": 4863936,
      "componentType": 5126,
      "count": 376,
      "max": [
        16.267837524414063,
        0.3858340084552765,
        7.807584762573242
      ],
      "min": [
        12.724623680114746,
        -0.38583600521087646,
        0.012369000352919102
      ],
      "type": "VEC3"
    },
    {
      "bufferView": 2,
      "byteOffset": 4868448,
      "componentType": 5126,
      "count": 376,
      "max": [
        1.0,
        1.0,
        1.0
      ],
      "min": [
        -1.0,
        -1.0,
        -1.0
      ],
      "type": "VEC3"
    },
    {
      "bufferView": 1,
      "byteOffset": 1621312,
      "componentType": 5126,
      "count": 376,
      "max": [
        0.028988000005483627,
        0.9944970011711121
      ],
      "min": [
        0.008957000449299812,
        0.9744660258293152
      ],
      "type": "VEC2"
    },
    {
      "bufferView": 0,
      "byteOffset": 1411392,
      "componentType": 5125,
      "count": 684,
      "type": "SCALAR"
    }
  ],
  "asset": {
    "extras": {
      "author": "Calne (https://sketchfab.com/Calne)",
      "license": "CC-BY-4.0 (http://creativecommons.org/licenses/by/4.0/)",
      "source": "https://sketchfab.com/3d-models/steam-locomotive-smoking-billy-2f3b321c1d4c4bfe8991654f81a43211",
      "title": "Steam Locomotive \"Smoking Billy\""
    },
    "generator": "Sketchfab-15.36.0",
    "version": "2.0"
  },
  "bufferViews": [
    {
      "buffer": 0,
      "byteLength": 1414128,
      "name": "floatBufferViews",
      "target": 34963
    },
    {
      "buffer": 0,
      "byteLength": 1624320,
      "byteOffset": 1414128,
      "byteStride": 8,
      "name": "floatBufferViews",
      "target": 34962
    },
    {
      "buffer": 0,
      "byteLength": 4872960,
      "byteOffset": 3038448,
      "byteStride": 12,
      "name": "floatBufferViews",
      "target": 34962
    }
  ],
  "buffers": [
    {
      "byteLength": 7911408,
      "uri": "scene.bin"
    }
  ],
  "extensionsUsed": [
    "KHR_materials_specular"
  ],
  "images": [
    {
      "uri": "textures/Material.001_baseColor.png"
    },
    {
      "uri": "textures/Material.001_metallicRoughness.png"
    },
    {
      "uri": "textures/Material.001_specularf0.png"
    }
  ],
  "materials": [
    {
      "doubleSided": true,
      "extensions": {
        "KHR_materials_specular": {
          "specularColorFactor": [
            1.0,
            1.0,
            1.0
          ],
          "specularFactor": 0.5104777462178932,
          "specularTexture": {
            "index": 2
          }
        }
      },
      "name": "Material.001",
      "pbrMetallicRoughness": {
        "baseColorTexture": {
          "index": 0
        },
        "metallicRoughnessTexture": {
          "index": 1
        },
        "roughnessFactor": 0.6
      }
    },
    {
      "doubleSided": true,
      "extensions": {
        "KHR_materials_specular": {
          "specularColorFactor": [
            1.0,
            1.0,
            1.0
          ],
          "specularFactor": 0.5775255696017358,
          "specularTexture": {
            "index": 2
          }
        }
      },
      "name": "Material.003",
      "pbrMetallicRoughness": {
        "baseColorTexture": {
          "index": 0
        },
        "metallicFactor": 0.37638209945020784,
        "metallicRoughnessTexture": {
          "index": 1
        },
        "roughnessFactor": 0.6
      }
    },
    {
      "doubleSided": true,
      "extensions": {
        "KHR_materials_specular": {
          "specularColorFactor": [
            1.0,
            1.0,
            1.0
          ],
          "specularFactor": 1.0,
          "specularTexture": {
            "index": 2
          }
        }
      },
      "name": "Material.004",
      "pbrMetallicRoughness": {
        "baseColorTexture": {
          "index": 0
        },
        "metallicRoughnessTexture": {
          "index": 1
        },
        "roughnessFactor": 0.6
      }
    }
  ],
  "meshes": [
    {
      "name": "Object_0",
      "primitives": [
        {
          "attributes": {
            "NORMAL": 1,
            "POSITION": 0,
            "TEXCOORD_0": 2
          },
          "indices": 3,
          "material": 0,
          "mode": 4
        }
      ]
    },
    {
      "name": "Object_1",
      "primitives": [
        {
          "attributes": {
            "NORMAL": 5,
            "POSITION": 4,
            "TEXCOORD_0": 6
          },
          "indices": 7,
          "material": 0,
          "mode": 4
        }
      ]
    },
    {
      "name": "Object_2",
      "primitives": [
        {
          "attributes": {
            "NORMAL": 9,
            "POSITION": 8,
            "TEXCOORD_0": 10
          },
          "indices": 11,
          "material": 1,
          "mode": 4
        }
      ]
    },
    {
      "name": "Object_3",
      "primitives": [
        {
          "attributes": {
            "NORMAL": 13,
            "POSITION": 12,
            "TEXCOORD_0": 14
          },
          "indices": 15,
          "material": 1,
          "mode": 4
        }
      ]
    },
    {
      "name": "Object_4",
      "primitives": [
        {
          "attributes": {
            "NORMAL": 17,
            "POSITION": 16,
            "TEXCOORD_0": 18
          },
          "indices": 19,
          "material": 2,
          "mode": 4
        }
      ]
    }
  ],
  "nodes": [
    {
      "children": [
        1
      ],
      "matrix": [
        1.0,
        0.0,
        0.0,
        0.0,
        0.0,
        2.220446049250313e-16,
        -1.0,
        0.0,
        0.0,
        1.0,
        2.220446049250313e-16,
        0.0,
        0.0,
        0.0,
        0.0,
        1.0
      ],
      "name": "Sketchfab_model"
    },
    {
      "children": [
        2,
        3,
        4,
        5,
        6
      ],
      "name": "Smoking Billy Locomotive.obj.cleaner.materialmerger.gles"
    },
    {
      "mesh": 0,
      "name": "Object_2"
    },
    {
      "mesh": 1,
      "name": "Object_3"
    },
    {
      "mesh": 2,
      "name": "Object_4"
    },
    {
      "mesh": 3,
      "name": "Object_5"
    },
    {
      "mesh": 4,
      "name": "Object_6"
    }
  ],
  "samplers": [
    {
      "magFilter": 9729,
      "minFilter": 9987,
      "wrapS": 10497,
      "wrapT": 10497
    }
  ],
  "scene": 0,
  "scenes": [
    {
      "name": "Sketchfab_Scene",
      "nodes": [
        0
      ]
    }
  ],
  "textures": [
    {
      "sampler": 0,
      "source": 0
    },
    {
      "sampler": 0,
      "source": 1
    },
    {
      "sampler": 0,
      "source": 2
    }
  ]
}
