{
	"asset":{
		"generator":"Khronos glTF Blender I/O v3.6.27",
		"version":"2.0"
	},
	"scene":0,
	"scenes":[
		{
			"name":"Scene",
			"nodes":[
				0
			]
		}
	],
	"nodes":[
		{
			"mesh":0,
			"name":"Wind.004",
			"rotation":[
				0,
				0.7071066498756409,
				0,
				0.70710688829422
			],
			"scale":[
				1,
				1.2383893728256226,
				2.710002899169922
			],
			"translation":[
				0.9721730947494507,
				1.923972249031067,
				-1.53167724609375
			]
		}
	],
	"materials":[
		{
			"doubleSided":true,
			"name":"Material.001",
			"pbrMetallicRoughness":{
				"baseColorTexture":{
					"index":0
				},
				"metallicFactor":0
			}
		}
	],
	"meshes":[
		{
			"name":"Cube.005",
			"primitives":[
				{
					"attributes":{
						"POSITION":0,
						"NORMAL":1,
						"TEXCOORD_0":2
					},
					"indices":3,
					"material":0
				}
			]
		}
	],
	"textures":[
		{
			"sampler":0,
			"source":0
		}
	],
	"images":[
		{
			"bufferView":4,
			"mimeType":"image/jpeg",
			"name":"Tex"
		}
	],
	"accessors":[
		{
			"bufferView":0,
			"componentType":5126,
			"count":814,
			"max":[
				3.9367265701293945,
				0.8462092876434326,
				0.44248655438423157
			],
			"min":[
				-5.514825820922852,
				-1.6028056144714355,
				-0.7659717798233032
			],
			"type":"VEC3"
		},
		{
			"bufferView":1,
			"componentType":5126,
			"count":814,
			"type":"VEC3"
		},
		{
			"bufferView":2,
			"componentType":5126,
			"count":814,
			"type":"VEC2"
		},
		{
			"bufferView":3,
			"componentType":5123,
			"count":1401,
			"type":"SCALAR"
		}
	],
	"bufferViews":[
		{
			"buffer":0,
			"byteLength":9768,
			"byteOffset":0,
			"target":34962
		},
		{
			"buffer":0,
			"byteLength":9768,
			"byteOffset":9768,
			"target":34962
		},
		{
			"buffer":0,
			"byteLength":6512,
			"byteOffset":19536,
			"target":34962
		},
		{
			"buffer":0,
			"byteLength":2802,
			"byteOffset":26048,
			"target":34963
		},
		{
			"buffer":0,
			"byteLength":113858,
			"byteOffset":28852
		}
	],
	"samplers":[
		{
			"magFilter":9728,
			"minFilter":9984
		}
	],
	"buffers":[
		{
			"byteLength":142712,
			"uri":"data:application/octet-stream;base64,"
		}
	]
}
